<?xml version="1.0" encoding="UTF-8" standalone="no"?>
<!-- Created with Inkscape (http://www.inkscape.org/) -->

<svg
   xmlns:dc="http://purl.org/dc/elements/1.1/"
   xmlns:cc="http://creativecommons.org/ns#"
   xmlns:rdf="http://www.w3.org/1999/02/22-rdf-syntax-ns#"
   xmlns:svg="http://www.w3.org/2000/svg"
   xmlns="http://www.w3.org/2000/svg"
   xmlns:sodipodi="http://sodipodi.sourceforge.net/DTD/sodipodi-0.dtd"
   xmlns:inkscape="http://www.inkscape.org/namespaces/inkscape"
   width="210mm"
   height="297mm"
   viewBox="0 0 210 297"
   version="1.1"
   id="svg2788"
   inkscape:version="0.92.4 (5da689c313, 2019-01-14)"
   sodipodi:docname="bucapi logo.svg">
  <defs
     id="defs2782" />
  <sodipodi:namedview
     id="base"
     pagecolor="#ffffff"
     bordercolor="#666666"
     borderopacity="1.0"
     inkscape:pageopacity="0.0"
     inkscape:pageshadow="2"
     inkscape:zoom="0.49497475"
     inkscape:cx="453.00567"
     inkscape:cy="587.45661"
     inkscape:document-units="mm"
     inkscape:current-layer="layer1"
     showgrid="false"
     inkscape:window-width="1024"
     inkscape:window-height="744"
     inkscape:window-x="0"
     inkscape:window-y="0"
     inkscape:window-maximized="1" />
  <metadata
     id="metadata2785">
    <rdf:RDF>
      <cc:Work
         rdf:about="">
        <dc:format>image/svg+xml</dc:format>
        <dc:type
           rdf:resource="http://purl.org/dc/dcmitype/StillImage" />
        <dc:title></dc:title>
      </cc:Work>
    </rdf:RDF>
  </metadata>
  <g
     inkscape:label="Capa 1"
     inkscape:groupmode="layer"
     id="layer1">
    <path
       inkscape:connector-curvature="0"
       id="path2720"
       d="M 84.122385,180.13932 C 59.8014,178.82109 51.736181,176.53586 43.959716,168.75942 33.432185,158.23189 33.005594,155.72936 33.815691,109.25004 c 0.660461,-37.892939 0.910191,-41.061412 3.741185,-47.463489 3.9756,-8.990589 8.566206,-13.606674 17.243978,-17.339738 6.608968,-2.843121 9.838538,-3.103316 46.725396,-3.764839 45.023,-0.807427 49.50057,-0.122631 58.90363,9.009583 10.53195,10.228476 10.99835,12.595163 11.49492,58.327463 0.37615,34.64264 0.10901,41.61211 -1.81836,47.4145 -2.41225,7.26267 -10.31808,16.50233 -17.13732,20.0287 -8.72456,4.51165 -36.75994,6.41622 -68.846735,4.6771 z m 32.019045,-31.58298 c 9.40385,-4.74133 22.14288,-14.0712 21.892,-16.03337 -0.0935,-0.73066 -5.52143,-4.53651 -12.06226,-8.45739 C 103.70207,110.7164 98.2083,104.60957 88.834014,82.78406 81.268119,65.16881 74.309354,59.923739 68.426686,67.402321 64.02981,72.992066 52.799469,99.92421 51.979861,106.84444 c -1.405291,11.86551 6.017916,22.68815 23.429544,34.15898 19.772646,13.02628 27.159585,14.39603 40.732025,7.55292 z m 31.1272,-24.37925 c 6.92693,-11.20802 6.25699,-17.70948 -4.2416,-41.16145 -7.1538,-15.980339 -8.39226,-17.631872 -13.24884,-17.667708 -4.41909,-0.03243 -7.87056,4.729233 -16.84842,23.244948 -6.22571,12.83966 -7.88408,17.477 -6.74463,18.86003 4.13145,5.01474 31.43426,21.53999 35.71846,21.61891 1.27246,0.0245 3.68673,-2.17917 5.36503,-4.89473 z"
       style="fill:#1877f2;fill-opacity:1;stroke-width:1.38668954" />
  </g>
</svg>
